<?xml version="1.0" encoding="UTF-8" standalone="no"?>
<!DOCTYPE svg PUBLIC "-//W3C//DTD SVG 1.1//EN"
 "http://www.w3.org/Graphics/SVG/1.1/DTD/svg11.dtd">
<!-- Generated by graphviz version 2.50.0 (0)
 -->
<!-- Pages: 1 -->
<svg width="436pt" height="2260pt"
 viewBox="0.00 0.00 436.00 2260.00" xmlns="http://www.w3.org/2000/svg" xmlns:xlink="http://www.w3.org/1999/xlink">
<g id="graph0" class="graph" transform="scale(1 1) rotate(0) translate(4 2256)">
<polygon fill="white" stroke="transparent" points="-4,4 -4,-2256 432,-2256 432,4 -4,4"/>
<!-- node_0 -->
<g id="node1" class="node">
<title>node_0</title>
<ellipse fill="none" stroke="black" cx="214" cy="-2234" rx="83.39" ry="18"/>
<text text-anchor="middle" x="214" y="-2230.3" font-family="Times New Roman,serif" font-size="14.00">Function: add(5, 10)</text>
</g>
<!-- node_1 -->
<g id="node2" class="node">
<title>node_1</title>
<text text-anchor="middle" x="214" y="-2158.3" font-family="Times New Roman,serif" font-size="14.00">Variable: num = 0</text>
</g>
<!-- node_0&#45;&gt;node_1 -->
<g id="edge1" class="edge">
<title>node_0&#45;&gt;node_1</title>
<path fill="none" stroke="black" d="M214,-2215.7C214,-2207.98 214,-2198.71 214,-2190.11"/>
<polygon fill="black" stroke="black" points="217.5,-2190.1 214,-2180.1 210.5,-2190.1 217.5,-2190.1"/>
</g>
<!-- node_2 -->
<g id="node3" class="node">
<title>node_2</title>
<polygon fill="none" stroke="black" points="355.98,-2108 130.12,-2108 72.02,-2072 297.88,-2072 355.98,-2108"/>
<text text-anchor="middle" x="214" y="-2086.3" font-family="Times New Roman,serif" font-size="14.00">Loop Start: i in range(5)</text>
</g>
<!-- node_1&#45;&gt;node_2 -->
<g id="edge2" class="edge">
<title>node_1&#45;&gt;node_2</title>
<path fill="none" stroke="black" d="M214,-2143.7C214,-2135.98 214,-2126.71 214,-2118.11"/>
<polygon fill="black" stroke="black" points="217.5,-2118.1 214,-2108.1 210.5,-2118.1 217.5,-2118.1"/>
</g>
<!-- node_3 -->
<g id="node4" class="node">
<title>node_3</title>
<polygon fill="none" stroke="black" points="317.74,-2036 152.71,-2036 110.26,-2000 275.29,-2000 317.74,-2036"/>
<text text-anchor="middle" x="214" y="-2014.3" font-family="Times New Roman,serif" font-size="14.00">Loop Iteration: 0</text>
</g>
<!-- node_2&#45;&gt;node_3 -->
<g id="edge3" class="edge">
<title>node_2&#45;&gt;node_3</title>
<path fill="none" stroke="black" d="M214,-2071.7C214,-2063.98 214,-2054.71 214,-2046.11"/>
<polygon fill="black" stroke="black" points="217.5,-2046.1 214,-2036.1 210.5,-2046.1 217.5,-2046.1"/>
</g>
<!-- node_4 -->
<g id="node5" class="node">
<title>node_4</title>
<ellipse fill="none" stroke="black" cx="214" cy="-1946" rx="37.09" ry="18"/>
<text text-anchor="middle" x="214" y="-1942.3" font-family="Times New Roman,serif" font-size="14.00">Print: 0</text>
</g>
<!-- node_3&#45;&gt;node_4 -->
<g id="edge4" class="edge">
<title>node_3&#45;&gt;node_4</title>
<path fill="none" stroke="black" d="M214,-1999.7C214,-1991.98 214,-1982.71 214,-1974.11"/>
<polygon fill="black" stroke="black" points="217.5,-1974.1 214,-1964.1 210.5,-1974.1 217.5,-1974.1"/>
</g>
<!-- node_5 -->
<g id="node6" class="node">
<title>node_5</title>
<polygon fill="none" stroke="black" points="214,-1892 0,-1854 214,-1816 428,-1854 214,-1892"/>
<text text-anchor="middle" x="214" y="-1857.8" font-family="Times New Roman,serif" font-size="14.00">If Branch: (num + num2) % 2 == 0</text>
<text text-anchor="middle" x="214" y="-1842.8" font-family="Times New Roman,serif" font-size="14.00">Taken: True</text>
</g>
<!-- node_4&#45;&gt;node_5 -->
<g id="edge5" class="edge">
<title>node_4&#45;&gt;node_5</title>
<path fill="none" stroke="black" d="M214,-1927.65C214,-1920.3 214,-1911.34 214,-1902.27"/>
<polygon fill="black" stroke="black" points="217.5,-1902.04 214,-1892.04 210.5,-1902.04 217.5,-1902.04"/>
</g>
<!-- node_6 -->
<g id="node7" class="node">
<title>node_6</title>
<polygon fill="none" stroke="black" points="281.82,-1780 173.93,-1780 146.18,-1744 254.07,-1744 281.82,-1780"/>
<text text-anchor="middle" x="214" y="-1758.3" font-family="Times New Roman,serif" font-size="14.00">Loop End</text>
</g>
<!-- node_5&#45;&gt;node_6 -->
<g id="edge6" class="edge">
<title>node_5&#45;&gt;node_6</title>
<path fill="none" stroke="black" d="M214,-1815.87C214,-1807.26 214,-1798.24 214,-1790.14"/>
<polygon fill="black" stroke="black" points="217.5,-1790.14 214,-1780.14 210.5,-1790.14 217.5,-1790.14"/>
</g>
<!-- node_7 -->
<g id="node8" class="node">
<title>node_7</title>
<polygon fill="none" stroke="black" points="355.98,-1708 130.12,-1708 72.02,-1672 297.88,-1672 355.98,-1708"/>
<text text-anchor="middle" x="214" y="-1686.3" font-family="Times New Roman,serif" font-size="14.00">Loop Start: i in range(5)</text>
</g>
<!-- node_6&#45;&gt;node_7 -->
<g id="edge7" class="edge">
<title>node_6&#45;&gt;node_7</title>
<path fill="none" stroke="black" d="M214,-1743.7C214,-1735.98 214,-1726.71 214,-1718.11"/>
<polygon fill="black" stroke="black" points="217.5,-1718.1 214,-1708.1 210.5,-1718.1 217.5,-1718.1"/>
</g>
<!-- node_8 -->
<g id="node9" class="node">
<title>node_8</title>
<polygon fill="none" stroke="black" points="317.74,-1636 152.71,-1636 110.26,-1600 275.29,-1600 317.74,-1636"/>
<text text-anchor="middle" x="214" y="-1614.3" font-family="Times New Roman,serif" font-size="14.00">Loop Iteration: 1</text>
</g>
<!-- node_7&#45;&gt;node_8 -->
<g id="edge8" class="edge">
<title>node_7&#45;&gt;node_8</title>
<path fill="none" stroke="black" d="M214,-1671.7C214,-1663.98 214,-1654.71 214,-1646.11"/>
<polygon fill="black" stroke="black" points="217.5,-1646.1 214,-1636.1 210.5,-1646.1 217.5,-1646.1"/>
</g>
<!-- node_9 -->
<g id="node10" class="node">
<title>node_9</title>
<ellipse fill="none" stroke="black" cx="214" cy="-1546" rx="37.09" ry="18"/>
<text text-anchor="middle" x="214" y="-1542.3" font-family="Times New Roman,serif" font-size="14.00">Print: 5</text>
</g>
<!-- node_8&#45;&gt;node_9 -->
<g id="edge9" class="edge">
<title>node_8&#45;&gt;node_9</title>
<path fill="none" stroke="black" d="M214,-1599.7C214,-1591.98 214,-1582.71 214,-1574.11"/>
<polygon fill="black" stroke="black" points="217.5,-1574.1 214,-1564.1 210.5,-1574.1 217.5,-1574.1"/>
</g>
<!-- node_10 -->
<g id="node11" class="node">
<title>node_10</title>
<polygon fill="none" stroke="black" points="214,-1492 0,-1454 214,-1416 428,-1454 214,-1492"/>
<text text-anchor="middle" x="214" y="-1457.8" font-family="Times New Roman,serif" font-size="14.00">If Branch: (num + num2) % 2 == 0</text>
<text text-anchor="middle" x="214" y="-1442.8" font-family="Times New Roman,serif" font-size="14.00">Taken: False</text>
</g>
<!-- node_9&#45;&gt;node_10 -->
<g id="edge10" class="edge">
<title>node_9&#45;&gt;node_10</title>
<path fill="none" stroke="black" d="M214,-1527.65C214,-1520.3 214,-1511.34 214,-1502.27"/>
<polygon fill="black" stroke="black" points="217.5,-1502.04 214,-1492.04 210.5,-1502.04 217.5,-1502.04"/>
</g>
<!-- node_11 -->
<g id="node12" class="node">
<title>node_11</title>
<polygon fill="none" stroke="black" points="281.82,-1380 173.93,-1380 146.18,-1344 254.07,-1344 281.82,-1380"/>
<text text-anchor="middle" x="214" y="-1358.3" font-family="Times New Roman,serif" font-size="14.00">Loop End</text>
</g>
<!-- node_10&#45;&gt;node_11 -->
<g id="edge11" class="edge">
<title>node_10&#45;&gt;node_11</title>
<path fill="none" stroke="black" d="M214,-1415.87C214,-1407.26 214,-1398.24 214,-1390.14"/>
<polygon fill="black" stroke="black" points="217.5,-1390.14 214,-1380.14 210.5,-1390.14 217.5,-1390.14"/>
</g>
<!-- node_12 -->
<g id="node13" class="node">
<title>node_12</title>
<polygon fill="none" stroke="black" points="355.98,-1308 130.12,-1308 72.02,-1272 297.88,-1272 355.98,-1308"/>
<text text-anchor="middle" x="214" y="-1286.3" font-family="Times New Roman,serif" font-size="14.00">Loop Start: i in range(5)</text>
</g>
<!-- node_11&#45;&gt;node_12 -->
<g id="edge12" class="edge">
<title>node_11&#45;&gt;node_12</title>
<path fill="none" stroke="black" d="M214,-1343.7C214,-1335.98 214,-1326.71 214,-1318.11"/>
<polygon fill="black" stroke="black" points="217.5,-1318.1 214,-1308.1 210.5,-1318.1 217.5,-1318.1"/>
</g>
<!-- node_13 -->
<g id="node14" class="node">
<title>node_13</title>
<polygon fill="none" stroke="black" points="317.74,-1236 152.71,-1236 110.26,-1200 275.29,-1200 317.74,-1236"/>
<text text-anchor="middle" x="214" y="-1214.3" font-family="Times New Roman,serif" font-size="14.00">Loop Iteration: 2</text>
</g>
<!-- node_12&#45;&gt;node_13 -->
<g id="edge13" class="edge">
<title>node_12&#45;&gt;node_13</title>
<path fill="none" stroke="black" d="M214,-1271.7C214,-1263.98 214,-1254.71 214,-1246.11"/>
<polygon fill="black" stroke="black" points="217.5,-1246.1 214,-1236.1 210.5,-1246.1 217.5,-1246.1"/>
</g>
<!-- node_14 -->
<g id="node15" class="node">
<title>node_14</title>
<ellipse fill="none" stroke="black" cx="214" cy="-1146" rx="40.09" ry="18"/>
<text text-anchor="middle" x="214" y="-1142.3" font-family="Times New Roman,serif" font-size="14.00">Print: &#45;5</text>
</g>
<!-- node_13&#45;&gt;node_14 -->
<g id="edge14" class="edge">
<title>node_13&#45;&gt;node_14</title>
<path fill="none" stroke="black" d="M214,-1199.7C214,-1191.98 214,-1182.71 214,-1174.11"/>
<polygon fill="black" stroke="black" points="217.5,-1174.1 214,-1164.1 210.5,-1174.1 217.5,-1174.1"/>
</g>
<!-- node_15 -->
<g id="node16" class="node">
<title>node_15</title>
<polygon fill="none" stroke="black" points="214,-1092 0,-1054 214,-1016 428,-1054 214,-1092"/>
<text text-anchor="middle" x="214" y="-1057.8" font-family="Times New Roman,serif" font-size="14.00">If Branch: (num + num2) % 2 == 0</text>
<text text-anchor="middle" x="214" y="-1042.8" font-family="Times New Roman,serif" font-size="14.00">Taken: False</text>
</g>
<!-- node_14&#45;&gt;node_15 -->
<g id="edge15" class="edge">
<title>node_14&#45;&gt;node_15</title>
<path fill="none" stroke="black" d="M214,-1127.65C214,-1120.3 214,-1111.34 214,-1102.27"/>
<polygon fill="black" stroke="black" points="217.5,-1102.04 214,-1092.04 210.5,-1102.04 217.5,-1102.04"/>
</g>
<!-- node_16 -->
<g id="node17" class="node">
<title>node_16</title>
<polygon fill="none" stroke="black" points="281.82,-980 173.93,-980 146.18,-944 254.07,-944 281.82,-980"/>
<text text-anchor="middle" x="214" y="-958.3" font-family="Times New Roman,serif" font-size="14.00">Loop End</text>
</g>
<!-- node_15&#45;&gt;node_16 -->
<g id="edge16" class="edge">
<title>node_15&#45;&gt;node_16</title>
<path fill="none" stroke="black" d="M214,-1015.87C214,-1007.26 214,-998.24 214,-990.14"/>
<polygon fill="black" stroke="black" points="217.5,-990.14 214,-980.14 210.5,-990.14 217.5,-990.14"/>
</g>
<!-- node_17 -->
<g id="node18" class="node">
<title>node_17</title>
<polygon fill="none" stroke="black" points="355.98,-908 130.12,-908 72.02,-872 297.88,-872 355.98,-908"/>
<text text-anchor="middle" x="214" y="-886.3" font-family="Times New Roman,serif" font-size="14.00">Loop Start: i in range(5)</text>
</g>
<!-- node_16&#45;&gt;node_17 -->
<g id="edge17" class="edge">
<title>node_16&#45;&gt;node_17</title>
<path fill="none" stroke="black" d="M214,-943.7C214,-935.98 214,-926.71 214,-918.11"/>
<polygon fill="black" stroke="black" points="217.5,-918.1 214,-908.1 210.5,-918.1 217.5,-918.1"/>
</g>
<!-- node_18 -->
<g id="node19" class="node">
<title>node_18</title>
<polygon fill="none" stroke="black" points="317.74,-836 152.71,-836 110.26,-800 275.29,-800 317.74,-836"/>
<text text-anchor="middle" x="214" y="-814.3" font-family="Times New Roman,serif" font-size="14.00">Loop Iteration: 3</text>
</g>
<!-- node_17&#45;&gt;node_18 -->
<g id="edge18" class="edge">
<title>node_17&#45;&gt;node_18</title>
<path fill="none" stroke="black" d="M214,-871.7C214,-863.98 214,-854.71 214,-846.11"/>
<polygon fill="black" stroke="black" points="217.5,-846.1 214,-836.1 210.5,-846.1 217.5,-846.1"/>
</g>
<!-- node_19 -->
<g id="node20" class="node">
<title>node_19</title>
<ellipse fill="none" stroke="black" cx="214" cy="-746" rx="44.39" ry="18"/>
<text text-anchor="middle" x="214" y="-742.3" font-family="Times New Roman,serif" font-size="14.00">Print: &#45;15</text>
</g>
<!-- node_18&#45;&gt;node_19 -->
<g id="edge19" class="edge">
<title>node_18&#45;&gt;node_19</title>
<path fill="none" stroke="black" d="M214,-799.7C214,-791.98 214,-782.71 214,-774.11"/>
<polygon fill="black" stroke="black" points="217.5,-774.1 214,-764.1 210.5,-774.1 217.5,-774.1"/>
</g>
<!-- node_20 -->
<g id="node21" class="node">
<title>node_20</title>
<polygon fill="none" stroke="black" points="214,-692 0,-654 214,-616 428,-654 214,-692"/>
<text text-anchor="middle" x="214" y="-657.8" font-family="Times New Roman,serif" font-size="14.00">If Branch: (num + num2) % 2 == 0</text>
<text text-anchor="middle" x="214" y="-642.8" font-family="Times New Roman,serif" font-size="14.00">Taken: False</text>
</g>
<!-- node_19&#45;&gt;node_20 -->
<g id="edge20" class="edge">
<title>node_19&#45;&gt;node_20</title>
<path fill="none" stroke="black" d="M214,-727.65C214,-720.3 214,-711.34 214,-702.27"/>
<polygon fill="black" stroke="black" points="217.5,-702.04 214,-692.04 210.5,-702.04 217.5,-702.04"/>
</g>
<!-- node_21 -->
<g id="node22" class="node">
<title>node_21</title>
<polygon fill="none" stroke="black" points="281.82,-580 173.93,-580 146.18,-544 254.07,-544 281.82,-580"/>
<text text-anchor="middle" x="214" y="-558.3" font-family="Times New Roman,serif" font-size="14.00">Loop End</text>
</g>
<!-- node_20&#45;&gt;node_21 -->
<g id="edge21" class="edge">
<title>node_20&#45;&gt;node_21</title>
<path fill="none" stroke="black" d="M214,-615.87C214,-607.26 214,-598.24 214,-590.14"/>
<polygon fill="black" stroke="black" points="217.5,-590.14 214,-580.14 210.5,-590.14 217.5,-590.14"/>
</g>
<!-- node_22 -->
<g id="node23" class="node">
<title>node_22</title>
<polygon fill="none" stroke="black" points="355.98,-508 130.12,-508 72.02,-472 297.88,-472 355.98,-508"/>
<text text-anchor="middle" x="214" y="-486.3" font-family="Times New Roman,serif" font-size="14.00">Loop Start: i in range(5)</text>
</g>
<!-- node_21&#45;&gt;node_22 -->
<g id="edge22" class="edge">
<title>node_21&#45;&gt;node_22</title>
<path fill="none" stroke="black" d="M214,-543.7C214,-535.98 214,-526.71 214,-518.11"/>
<polygon fill="black" stroke="black" points="217.5,-518.1 214,-508.1 210.5,-518.1 217.5,-518.1"/>
</g>
<!-- node_23 -->
<g id="node24" class="node">
<title>node_23</title>
<polygon fill="none" stroke="black" points="317.74,-436 152.71,-436 110.26,-400 275.29,-400 317.74,-436"/>
<text text-anchor="middle" x="214" y="-414.3" font-family="Times New Roman,serif" font-size="14.00">Loop Iteration: 4</text>
</g>
<!-- node_22&#45;&gt;node_23 -->
<g id="edge23" class="edge">
<title>node_22&#45;&gt;node_23</title>
<path fill="none" stroke="black" d="M214,-471.7C214,-463.98 214,-454.71 214,-446.11"/>
<polygon fill="black" stroke="black" points="217.5,-446.1 214,-436.1 210.5,-446.1 217.5,-446.1"/>
</g>
<!-- node_24 -->
<g id="node25" class="node">
<title>node_24</title>
<ellipse fill="none" stroke="black" cx="214" cy="-346" rx="44.39" ry="18"/>
<text text-anchor="middle" x="214" y="-342.3" font-family="Times New Roman,serif" font-size="14.00">Print: &#45;25</text>
</g>
<!-- node_23&#45;&gt;node_24 -->
<g id="edge24" class="edge">
<title>node_23&#45;&gt;node_24</title>
<path fill="none" stroke="black" d="M214,-399.7C214,-391.98 214,-382.71 214,-374.11"/>
<polygon fill="black" stroke="black" points="217.5,-374.1 214,-364.1 210.5,-374.1 217.5,-374.1"/>
</g>
<!-- node_25 -->
<g id="node26" class="node">
<title>node_25</title>
<polygon fill="none" stroke="black" points="214,-292 0,-254 214,-216 428,-254 214,-292"/>
<text text-anchor="middle" x="214" y="-257.8" font-family="Times New Roman,serif" font-size="14.00">If Branch: (num + num2) % 2 == 0</text>
<text text-anchor="middle" x="214" y="-242.8" font-family="Times New Roman,serif" font-size="14.00">Taken: False</text>
</g>
<!-- node_24&#45;&gt;node_25 -->
<g id="edge25" class="edge">
<title>node_24&#45;&gt;node_25</title>
<path fill="none" stroke="black" d="M214,-327.65C214,-320.3 214,-311.34 214,-302.27"/>
<polygon fill="black" stroke="black" points="217.5,-302.04 214,-292.04 210.5,-302.04 217.5,-302.04"/>
</g>
<!-- node_26 -->
<g id="node27" class="node">
<title>node_26</title>
<polygon fill="none" stroke="black" points="281.82,-180 173.93,-180 146.18,-144 254.07,-144 281.82,-180"/>
<text text-anchor="middle" x="214" y="-158.3" font-family="Times New Roman,serif" font-size="14.00">Loop End</text>
</g>
<!-- node_25&#45;&gt;node_26 -->
<g id="edge26" class="edge">
<title>node_25&#45;&gt;node_26</title>
<path fill="none" stroke="black" d="M214,-215.87C214,-207.26 214,-198.24 214,-190.14"/>
<polygon fill="black" stroke="black" points="217.5,-190.14 214,-180.14 210.5,-190.14 217.5,-190.14"/>
</g>
<!-- node_27 -->
<g id="node28" class="node">
<title>node_27</title>
<polygon fill="none" stroke="black" points="214,-108 141.27,-90 214,-72 286.73,-90 214,-108"/>
<text text-anchor="middle" x="214" y="-86.3" font-family="Times New Roman,serif" font-size="14.00">Return: &#45;35</text>
</g>
<!-- node_26&#45;&gt;node_27 -->
<g id="edge27" class="edge">
<title>node_26&#45;&gt;node_27</title>
<path fill="none" stroke="black" d="M214,-143.7C214,-135.98 214,-126.71 214,-118.11"/>
<polygon fill="black" stroke="black" points="217.5,-118.1 214,-108.1 210.5,-118.1 217.5,-118.1"/>
</g>
<!-- node_28 -->
<g id="node29" class="node">
<title>node_28</title>
<ellipse fill="none" stroke="black" cx="214" cy="-18" rx="44.39" ry="18"/>
<text text-anchor="middle" x="214" y="-14.3" font-family="Times New Roman,serif" font-size="14.00">Print: &#45;35</text>
</g>
<!-- node_27&#45;&gt;node_28 -->
<g id="edge28" class="edge">
<title>node_27&#45;&gt;node_28</title>
<path fill="none" stroke="black" d="M214,-71.7C214,-63.98 214,-54.71 214,-46.11"/>
<polygon fill="black" stroke="black" points="217.5,-46.1 214,-36.1 210.5,-46.1 217.5,-46.1"/>
</g>
</g>
</svg>
